<svg id="avanti" viewBox="0 0 176 36"><g><path d="M5.49,9.91c1.81-0.96,3.36-2.24,6.17-2.24h1.68c6.78,0-2.81,28.04,12.9,28.04h2.52   c4.62,0,13.51-6.68,15.42-9.53c-1.7,0.45-4.05,3.37-7.29,3.37h-1.68c-4.34,0-5.48-11.23-5.88-15.71c-0.51-5.7-2.6-13.45-8.42-13.45   h-1.68C14.71,0.37,6.27,6.98,5.49,9.91" class="style0"/><path d="M0.44,21.68v2.24c0,3.34,2.93,8.69,5.89,8.69h1.12c3.89,0,6.45-4.91,6.45-8.97v-0.84   c0-4.48-2.5-9.53-6.73-9.53H6.89C3.63,13.27,0.44,18.47,0.44,21.68" class="style0"/><path d="M32.68,13.27v1.12c0,4.1,2.43,9.25,6.17,9.25h0.28c4.16,0,7.01-4.14,7.01-8.13v-2.8   c0-3.75-3.08-8.13-6.73-8.13C35.51,4.58,32.68,9.27,32.68,13.27" class="style0"/><path d="M171.57,32.53V8.52V8.07h0.46h3.08h0.46v0.46v24.01v0.46h-0.46h-3.08h-0.46V32.53z M175.1,6.17h-3.08h-0.46   V5.71V0.75V0.3h0.46h3.08h0.46v0.46v4.95v0.46H175.1z M161.42,32.53V12.08h-4.1h-0.46v-0.46v-3.1V8.07h0.46h4.1V0.75V0.3h0.46h3.08   h0.46v0.46v7.31h4.1h0.46v0.46v3.1v0.46h-0.46h-4.1v20.45v0.46h-0.46h-3.08h-0.46V32.53z M134.83,8.07h2.99h0.46v0.46v1.61   c0.26-0.24,0.53-0.46,0.81-0.67c0.58-0.43,1.19-0.78,1.85-1.05v0c0.65-0.28,1.35-0.48,2.1-0.62c0.74-0.14,1.53-0.2,2.35-0.2   c0.91,0,1.77,0.09,2.58,0.26c0.82,0.17,1.59,0.43,2.31,0.77v0c0.73,0.34,1.38,0.77,1.95,1.26c0.58,0.5,1.08,1.07,1.5,1.72l0,0   c0.29,0.45,0.54,0.95,0.75,1.48c0.21,0.53,0.38,1.09,0.5,1.7v0c0.12,0.6,0.22,1.34,0.28,2.21c0.06,0.87,0.09,1.87,0.09,3v12.54   v0.46h-0.46h-3.03h-0.46v-0.46V19.09c0-1.38-0.13-2.56-0.39-3.55c-0.25-0.96-0.63-1.74-1.12-2.33l0,0   c-0.49-0.58-1.13-1.02-1.93-1.31c-0.82-0.3-1.79-0.45-2.93-0.45c-0.67,0-1.29,0.07-1.87,0.2c-0.57,0.13-1.1,0.33-1.6,0.59v0   c-0.49,0.26-0.93,0.58-1.31,0.95c-0.39,0.37-0.72,0.8-1.01,1.28h0c-0.18,0.3-0.33,0.63-0.45,0.97c-0.12,0.35-0.22,0.72-0.29,1.12   l0,0.01c-0.08,0.4-0.13,0.95-0.17,1.66c-0.04,0.71-0.06,1.58-0.06,2.63v11.67v0.46h-0.46h-2.99h-0.46v-0.46V8.52V8.07H134.83z    M126.5,30.03c-0.29,0.32-0.61,0.62-0.94,0.9c-0.68,0.57-1.44,1.05-2.3,1.47l0,0c-0.85,0.4-1.73,0.71-2.65,0.92   c-0.92,0.2-1.86,0.31-2.84,0.31c-1.82,0-3.49-0.31-5.01-0.94c-1.52-0.63-2.89-1.57-4.11-2.81c-1.21-1.25-2.13-2.64-2.74-4.19   c-0.61-1.54-0.91-3.22-0.91-5.05c0-1.85,0.31-3.55,0.93-5.11c0.62-1.56,1.55-2.97,2.79-4.22l0,0c1.24-1.25,2.64-2.19,4.19-2.82   c1.55-0.63,3.26-0.94,5.11-0.94c0.95,0,1.87,0.1,2.75,0.29c0.89,0.2,1.73,0.49,2.53,0.88c0.8,0.39,1.54,0.87,2.21,1.44   c0.34,0.29,0.67,0.6,0.98,0.94V8.52V8.07h0.46h3.01h0.46v0.46v24.01v0.46h-0.46h-3.01h-0.46v-0.46V30.03z M126.5,20.38   c0-1.22-0.22-2.35-0.65-3.4c-0.43-1.06-1.08-2.04-1.95-2.95h0c-0.87-0.91-1.8-1.58-2.79-2.03c-0.99-0.45-2.05-0.67-3.17-0.67   c-1.23,0-2.36,0.22-3.4,0.67c-1.04,0.45-1.99,1.13-2.85,2.03c-0.87,0.91-1.51,1.92-1.94,3.04c-0.43,1.12-0.65,2.36-0.65,3.71   c0,1.28,0.21,2.46,0.64,3.53c0.43,1.07,1.07,2.04,1.93,2.92c0.86,0.88,1.8,1.53,2.83,1.97c1.02,0.44,2.14,0.65,3.35,0.65   c1.16,0,2.24-0.23,3.24-0.68c1.01-0.46,1.94-1.15,2.81-2.08c0.87-0.93,1.52-1.95,1.95-3.07C126.29,22.9,126.5,21.69,126.5,20.38    M94.75,32.99h-2.82h-0.31l-0.11-0.29L82.12,8.69l-0.24-0.62h0.67h3.26h0.31l0.11,0.29l7.26,18.3l7.32-18.3l0.12-0.29h0.31h3.34   h0.68l-0.26,0.63L95.17,32.7l-0.12,0.28H94.75z M77.03,30.03c-0.29,0.32-0.61,0.62-0.95,0.9c-0.68,0.57-1.44,1.05-2.3,1.47l0,0   c-0.85,0.4-1.73,0.71-2.66,0.92c-0.92,0.2-1.86,0.31-2.84,0.31c-1.82,0-3.49-0.31-5.01-0.94c-1.52-0.63-2.89-1.57-4.11-2.81   c-1.22-1.25-2.13-2.64-2.74-4.19c-0.61-1.54-0.91-3.22-0.91-5.05c0-1.85,0.31-3.55,0.93-5.11c0.62-1.56,1.55-2.97,2.79-4.22l0,0   c1.24-1.25,2.64-2.19,4.19-2.82c1.55-0.63,3.26-0.94,5.11-0.94c0.95,0,1.87,0.1,2.75,0.29c0.89,0.2,1.73,0.49,2.53,0.88   c0.8,0.39,1.54,0.87,2.21,1.44c0.34,0.29,0.67,0.6,0.98,0.94V8.52V8.07h0.46h3.01h0.46v0.46v24.01v0.46H80.5h-3.01h-0.46v-0.46   V30.03z M77.03,20.38c0-1.22-0.22-2.35-0.65-3.4c-0.43-1.06-1.08-2.04-1.95-2.95h0c-0.87-0.91-1.8-1.58-2.79-2.03   c-0.99-0.45-2.04-0.67-3.17-0.67c-1.23,0-2.36,0.22-3.4,0.67c-1.04,0.45-1.99,1.13-2.85,2.03c-0.87,0.91-1.51,1.92-1.94,3.04   c-0.43,1.12-0.65,2.36-0.65,3.71c0,1.28,0.21,2.46,0.64,3.53c0.43,1.07,1.07,2.04,1.93,2.92c0.86,0.88,1.8,1.53,2.83,1.97   c1.02,0.44,2.14,0.65,3.35,0.65c1.16,0,2.24-0.23,3.24-0.68c1.01-0.46,1.94-1.15,2.81-2.08c0.87-0.93,1.52-1.95,1.95-3.07   C76.82,22.9,77.03,21.69,77.03,20.38" class="style0"/></g></svg>