<svg xmlns="http://www.w3.org/2000/svg" style="display:none">
    <!-- SITE SPECIFIC -->
    <!-- logo -->
    <symbol id="avanti-logo" viewBox="0 0 24 24">
        <g>
            <polygon points="9.416,15.749 8.344,18.634 7.305,15.749 6.541,15.749 8.04,19.702 8.576,19.702 10.166,15.749"></polygon>
            <path d="M5.032 18.7c-0.266 0.275-0.574 0.408-0.926 0.408c-0.037 0-0.072-0.002-0.108-0.005 c-0.013-0.001-0.026-0.001-0.038-0.002c-0.04-0.004-0.079-0.009-0.117-0.016c-0.005-0.001-0.01-0.002-0.015-0.002 c-0.219-0.042-0.416-0.135-0.59-0.281c-0.001-0.001-0.002-0.001-0.002-0.002c-0.035-0.03-0.069-0.061-0.102-0.095 c-0.266-0.275-0.398-0.603-0.398-1.006c0-0.38 0.133-0.702 0.398-0.968c0.266-0.261 0.584-0.394 0.958-0.394 c0.365 0 0.678 0.138 0.944 0.418c0.266 0.275 0.398 0.607 0.398 0.996C5.435 18.117 5.298 18.43 5.032 18.7 M5.398 16.228 c-0.185-0.194-0.394-0.342-0.622-0.437c-0.22-0.096-0.462-0.143-0.721-0.146c-0.01-0.001-0.019-0.001-0.029-0.001 c-0.299 0-0.569 0.052-0.806 0.152c-0.237 0.1-0.456 0.251-0.655 0.46c-0.18 0.19-0.322 0.408-0.418 0.659 C2.048 17.167 2 17.429 2 17.709c0 0.598 0.195 1.091 0.589 1.485c0.394 0.399 0.887 0.598 1.48 0.598h0.014 c0.008 0 0.016-0.001 0.024-0.001c0.146-0.003 0.286-0.022 0.422-0.058c0.089-0.022 0.175-0.052 0.261-0.088 c0.223-0.1 0.427-0.242 0.607-0.432v0.489h0.721v-3.952H5.398V16.228z"></path>
            <rect x="21.298" y="14.468" width="0.702" height="0.816"></rect>
            <path d="M13.274 18.7c-0.266 0.275-0.574 0.408-0.926 0.408c-0.029 0-0.058-0.002-0.086-0.004 c-0.02-0.001-0.041-0.002-0.061-0.003c-0.021-0.002-0.041-0.006-0.061-0.009c-0.025-0.003-0.05-0.006-0.074-0.011 c-0.015-0.003-0.029-0.007-0.043-0.01c-0.029-0.007-0.057-0.013-0.085-0.022c-0.01-0.003-0.019-0.007-0.029-0.01 c-0.032-0.01-0.063-0.021-0.094-0.034c-0.007-0.003-0.013-0.006-0.02-0.01c-0.033-0.014-0.065-0.03-0.097-0.047 c-0.007-0.004-0.013-0.008-0.02-0.012c-0.031-0.018-0.061-0.036-0.091-0.056c-0.013-0.009-0.026-0.02-0.039-0.029 c-0.022-0.017-0.045-0.033-0.067-0.052c-0.034-0.029-0.068-0.06-0.101-0.094c-0.266-0.275-0.399-0.603-0.399-1.006 c0-0.38 0.133-0.702 0.399-0.968c0.266-0.261 0.584-0.394 0.954-0.394c0.366 0 0.678 0.138 0.944 0.418 c0.266 0.275 0.398 0.607 0.398 0.996C13.677 18.117 13.545 18.43 13.274 18.7 M13.64 16.228c-0.185-0.194-0.394-0.342-0.622-0.437 c-0.22-0.096-0.457-0.143-0.72-0.146c-0.01-0.001-0.02-0.001-0.03-0.001c-0.294 0-0.565 0.052-0.802 0.152 c-0.237 0.1-0.451 0.251-0.65 0.46c-0.185 0.19-0.322 0.408-0.422 0.659c-0.1 0.251-0.147 0.513-0.147 0.793 c0 0.598 0.194 1.091 0.588 1.485c0.394 0.399 0.887 0.598 1.476 0.598h0.019c0.01 0 0.021-0.001 0.031-0.001 c0.113-0.003 0.222-0.016 0.329-0.038c0.117-0.024 0.231-0.06 0.343-0.107c0.223-0.1 0.427-0.242 0.607-0.432v0.489h0.721v-3.952 H13.64V16.228z"></path>
            <rect x="21.298" y="15.749" width="0.702" height="3.953"></rect>
            <polygon points="19.367,14.468 19.367,15.749 18.802,15.749 18.802,16.394 19.367,16.394 19.367,19.701 20.074,19.701 20.074,16.394 20.634,16.394 20.634,15.749 20.074,15.749 20.074,14.468"></polygon>
            <path d="M16.828 15.682c-0.228 0-0.432 0.043-0.612 0.123c-0.18 0.085-0.342 0.214-0.493 0.394v-0.451h-0.683v3.953 h0.712v-1.794c0-0.55 0.081-0.944 0.242-1.181c0.161-0.242 0.418-0.361 0.769-0.361c0.327 0 0.569 0.105 0.726 0.304 c0.157 0.204 0.233 0.517 0.233 0.935v2.097h0.717v-2.249c0-0.57-0.138-1.006-0.413-1.314 C17.744 15.834 17.346 15.682 16.828 15.682"></path>
            <path d="M9.35 10.482c0-1.452-0.835-2.638-1.86-2.638S5.63 9.03 5.63 10.482s0.835 2.638 1.86 2.638 S9.35 11.934 9.35 10.482"></path>
            <path d="M16.292 10.795c1.02 0 1.86-1.182 1.86-2.634s-0.84-2.638-1.86-2.638c-1.025 0-1.865 1.186-1.865 2.638 S15.267 10.795 16.292 10.795"></path>
            <path d="M11.485 13.689c1.609 0.774 3.383 0.479 6.207-2.363c-6.354 4.607-1.965-6.7-6.572-7.108 c-1.647-0.133-2.951 1.11-4.209 2.657C12.249 3.687 8.226 12.119 11.485 13.689"></path>
        </g>
    </symbol>
    <!-- BRANDS -->
    <symbol id="facebook" viewBox="0 0 24 24">
        <path d="M22 5.3C22 3.6 20.4 2 18.7 2H5.3C3.6 2 2 3.6 2 5.3v13.3C2 20.4 3.6 22 5.3 22H12v-7.6H9.6v-3.3H12V9.8c0-2.2 1.7-4.3 3.8-4.3h2.7v3.3h-2.7c-0.3 0-0.6 0.4-0.6 0.9v1.3h3.3v3.3h-3.3V22h3.6c1.8 0 3.3-1.6 3.3-3.3V5.3z"></path>
    </symbol>
    <symbol id="instagram" viewBox="0 0 24 24">
        <path fill-rule="evenodd" clip-rule="evenodd" d="M4.6 2h14.9C20.8 2 22 3.2 22 4.6v14.9c0 1.4-1.2 2.6-2.6 2.6H4.6C3.2 22 2 20.8 2 19.4V4.6C2 3.2 3.2 2 4.6 2L4.6 2zM16.6 4.2c-0.5 0-0.9 0.4-0.9 0.9v2.2c0 0.5 0.4 0.9 0.9 0.9h2.3c0.5 0 0.9-0.4 0.9-0.9V5.1c0-0.5-0.4-0.9-0.9-0.9H16.6L16.6 4.2zM19.7 10.5H18c0.2 0.5 0.3 1.1 0.3 1.7 0 3.3-2.8 6-6.2 6 -3.4 0-6.2-2.7-6.2-6 0-0.6 0.1-1.2 0.3-1.7H4.2v8.4c0 0.4 0.4 0.8 0.8 0.8h13.9c0.4 0 0.8-0.4 0.8-0.8V10.5L19.7 10.5zM12 8.1c-2.2 0-4 1.7-4 3.9 0 2.1 1.8 3.9 4 3.9 2.2 0 4-1.7 4-3.9C16 9.8 14.2 8.1 12 8.1z"></path>
    </symbol>
    <!-- GENERIC ANDROID ICONS -->
    <symbol id="chevron-up" viewBox="0 0 24 24">
        <path d="M12 8l-6 6 1.41 1.41L12 10.83l4.59 4.58L18 14z"></path>
    </symbol>
    <symbol id="chevron-down" viewBox="0 0 24 24">
        <path d="M16.59 8.59L12 13.17 7.41 8.59 6 10l6 6 6-6z"></path>
    </symbol>
    <symbol id="chevron-left" viewBox="0 0 24 24">
        <path d="M15.41 7.41L14 6l-6 6 6 6 1.41-1.41L10.83 12z"></path>
    </symbol>
    <symbol id="chevron-right" viewBox="0 0 24 24">
        <path d="M10 6L8.59 7.41 13.17 12l-4.58 4.59L10 18l6-6z"></path>
    </symbol>
    <symbol id="add" viewBox="0 0 24 24">
        <path d="M19 13h-6v6h-2v-6H5v-2h6V5h2v6h6v2z"></path>
    </symbol>
    <symbol id="remove" viewBox="0 0 24 24">
        <path d="M19 6.41L17.59 5 12 10.59 6.41 5 5 6.41 10.59 12 5 17.59 6.41 19 12 13.41 17.59 19 19 17.59 13.41 12z"></path>
    </symbol>
    <symbol id="search" viewBox="0 0 24 24">
        <path d="M15.5 14h-.79l-.28-.27C15.41 12.59 16 11.11 16 9.5 16 5.91 13.09 3 9.5 3S3 5.91 3 9.5 5.91 16 9.5 16c1.61 0 3.09-.59 4.23-1.57l.27.28v.79l5 4.99L20.49 19l-4.99-5zm-6 0C7.01 14 5 11.99 5 9.5S7.01 5 9.5 5 14 7.01 14 9.5 11.99 14 9.5 14z"></path>
    </symbol>
</svg>
